<?xml version="1.0" standalone="no"?>
<!DOCTYPE svg PUBLIC "-//W3C//DTD SVG 20010904//EN"
 "http://www.w3.org/TR/2001/REC-SVG-20010904/DTD/svg10.dtd">
<svg version="1.0" xmlns="http://www.w3.org/2000/svg"
 width="512.000000pt" height="512.000000pt" viewBox="0 0 512.000000 512.000000"
 preserveAspectRatio="xMidYMid meet">
<metadata>
Created by potrace 1.14, written by Peter Selinger 2001-2017
</metadata>
<g transform="translate(0.000000,512.000000) scale(0.100000,-0.100000)"
fill="#000000" stroke="none">
<path d="M2345 4189 c-390 -50 -762 -260 -1000 -564 -172 -219 -282 -452 -336
-713 -31 -145 -34 -480 -6 -612 27 -128 90 -307 150 -427 193 -391 531 -695
912 -822 167 -55 266 -73 450 -78 194 -6 313 8 494 58 197 55 446 194 598 333
67 62 216 241 275 331 288 439 353 929 191 1430 -22 68 -105 260 -118 273 -2
2 -21 -10 -42 -28 l-39 -33 33 -62 c44 -83 97 -247 125 -387 30 -150 32 -423
4 -568 -10 -52 -22 -101 -26 -109 -6 -11 -45 -13 -191 -13 -101 1 -213 -2
-249 -6 -60 -6 -65 -9 -68 -33 l-3 -26 237 -6 c130 -3 238 -8 240 -10 3 -2 -4
-25 -15 -50 l-20 -46 -1358 0 c-747 1 -1364 -1 -1372 -2 -16 -5 -59 86 -47 98
4 5 266 10 581 13 411 4 577 8 585 16 9 9 9 17 1 32 -10 19 -22 19 -605 18
l-595 -1 -16 65 c-17 66 -46 329 -38 343 2 4 82 7 177 7 l174 0 5 -29 c4 -16
21 -46 38 -66 59 -67 152 -97 229 -74 53 16 135 89 152 135 l12 34 66 0 65 -1
30 -52 c57 -98 185 -139 281 -90 48 25 111 92 120 128 l6 25 223 0 c324 0 429
25 528 126 71 71 90 114 95 211 10 186 -88 340 -248 387 -37 11 -93 16 -183
16 l-130 0 -37 40 c-29 32 -44 40 -71 40 -43 0 -92 -29 -115 -69 -21 -36 -63
-45 -178 -39 -55 2 -80 8 -95 22 -30 28 -73 24 -112 -8 -33 -28 -34 -28 -149
-24 -131 4 -177 22 -219 83 -47 69 -47 171 0 222 48 51 88 63 214 63 l115 0 0
34 c0 20 -6 36 -14 39 -8 3 -71 9 -140 13 -117 6 -126 6 -159 -15 -45 -27 -91
-79 -118 -133 -52 -102 -27 -233 61 -319 65 -64 115 -79 264 -79 91 -1 126 -4
140 -15 28 -21 96 -19 126 5 21 17 41 20 138 20 l112 0 28 -31 c38 -42 94 -49
142 -17 19 13 39 34 45 46 9 21 15 22 136 22 157 0 205 -14 270 -81 115 -118
104 -307 -23 -395 -78 -53 -151 -64 -422 -64 -192 0 -236 3 -236 13 0 8 -14
33 -31 56 -42 59 -102 84 -185 79 -80 -5 -137 -42 -174 -111 l-25 -47 -71 0
c-71 0 -72 0 -85 31 -49 120 -197 169 -315 105 -47 -25 -104 -92 -104 -121 0
-14 -328 -11 -341 2 -5 5 0 60 11 123 59 351 201 617 458 862 190 180 420 299
692 359 157 34 403 38 570 10 188 -32 415 -118 572 -217 l38 -24 0 52 c0 29
-4 58 -8 64 -23 33 -289 152 -424 188 -192 52 -453 70 -653 45z m275 -829 c31
-17 43 -46 29 -72 -22 -42 -59 -50 -91 -21 -26 23 -22 58 8 82 31 24 30 24 54
11z m-885 -615 c19 -20 38 -47 41 -61 10 -39 -12 -99 -47 -128 -41 -35 -123
-37 -164 -4 -47 37 -70 122 -45 169 16 30 80 58 132 59 41 0 52 -5 83 -35z
m545 18 c33 -23 47 -41 61 -81 9 -27 7 -39 -10 -76 -24 -49 -54 -66 -115 -66
-68 0 -126 59 -126 128 0 79 124 141 190 95z m1615 -825 c3 -3 -3 -24 -15 -47
l-20 -41 -1229 0 c-675 0 -1255 -3 -1289 -6 l-60 -7 -22 43 c-12 23 -18 46
-13 51 4 4 58 10 118 11 227 6 2524 3 2530 -4z m-100 -180 c4 -4 -5 -23 -20
-42 l-27 -36 -1179 -2 -1179 -3 -30 42 -30 42 37 4 c63 7 2421 3 2428 -5z
m-121 -166 c3 -5 -9 -23 -27 -40 l-32 -31 -1048 -2 -1048 -3 -31 31 c-17 17
-27 36 -24 42 9 13 2202 16 2210 3z m-461 -161 c181 -1 297 -5 297 -11 0 -5
-20 -23 -44 -40 l-45 -30 -852 0 -852 0 -49 31 c-27 18 -45 36 -41 40 11 11
333 15 873 12 228 -1 549 -2 713 -2z m50 -176 c3 -14 -90 -58 -200 -95 -314
-106 -609 -114 -917 -25 -79 23 -236 83 -281 108 -18 11 -17 12 15 18 59 11
1380 5 1383 -6z"/>
<path d="M3557 3982 c-13 -15 -17 -39 -17 -114 0 -78 -3 -97 -16 -102 -9 -3
-58 -6 -110 -6 l-94 0 0 -40 0 -40 110 0 110 0 1 -157 c0 -202 6 -235 41 -247
22 -8 32 -5 56 15 47 38 362 301 395 330 38 33 31 54 -31 96 -26 17 -125 88
-221 157 -96 69 -182 126 -191 126 -9 0 -24 -8 -33 -18z m296 -276 c37 -28 67
-53 66 -56 0 -4 -209 -172 -260 -209 -19 -13 -19 -8 -19 203 l0 216 73 -52
c39 -28 102 -74 140 -102z"/>
<path d="M2162 3835 c-59 -49 -66 -125 -17 -183 40 -48 77 -58 131 -37 76 29
104 104 69 179 -32 67 -127 88 -183 41z m98 -45 c48 -26 43 -94 -8 -107 -65
-16 -100 76 -40 105 29 14 26 14 48 2z"/>
<path d="M2638 3844 c-76 -41 -77 -164 -2 -223 60 -47 156 -12 184 67 13 37
13 47 0 84 -27 76 -113 110 -182 72z m104 -71 c10 -9 18 -27 18 -40 0 -27 -32
-63 -57 -63 -24 0 -63 40 -63 63 0 49 64 74 102 40z"/>
<path d="M3104 3841 c-40 -24 -68 -83 -61 -127 18 -107 135 -148 209 -74 23
24 28 37 28 80 0 64 -20 103 -64 124 -44 21 -74 20 -112 -3z m98 -68 c29 -26
19 -83 -17 -97 -28 -10 -75 21 -75 51 0 54 54 81 92 46z"/>
<path d="M2392 3723 c3 -38 3 -38 52 -41 79 -5 96 2 96 43 l0 35 -76 0 -75 0
3 -37z"/>
<path d="M2877 3753 c-14 -4 -17 -13 -15 -36 l3 -32 70 0 c70 0 70 0 73 29 2
16 -2 32 -10 37 -14 9 -90 10 -121 2z"/>
<path d="M2703 2184 c-22 -9 -14 -34 13 -44 16 -6 75 -8 150 -4 119 7 125 8
122 28 -3 20 -9 21 -138 23 -74 1 -141 -1 -147 -3z"/>
<path d="M3187 2183 c-11 -10 -8 -41 4 -49 16 -9 41 20 33 39 -6 17 -25 22
-37 10z"/>
<path d="M3370 2161 c0 -12 6 -21 16 -21 9 0 14 7 12 17 -5 25 -28 28 -28 4z"/>
</g>
</svg>
